<?xml version="1.0" encoding="UTF-8" standalone="no"?>
<svg
   xmlns:dc="http://purl.org/dc/elements/1.1/"
   xmlns:cc="http://creativecommons.org/ns#"
   xmlns:rdf="http://www.w3.org/1999/02/22-rdf-syntax-ns#"
   xmlns:svg="http://www.w3.org/2000/svg"
   xmlns="http://www.w3.org/2000/svg"
   xmlns:sodipodi="http://sodipodi.sourceforge.net/DTD/sodipodi-0.dtd"
   xmlns:inkscape="http://www.inkscape.org/namespaces/inkscape"
   id="svg4208"
   style="enable-background:new 0 0 64 64"
   xml:space="preserve"
   version="1.1"
   y="0px"
   x="0px"
   viewBox="0 0 64 64"
   inkscape:version="0.91 r13725"
   sodipodi:docname="shape_sphere.svg"><sodipodi:namedview
     pagecolor="#ffffff"
     bordercolor="#666666"
     borderopacity="1"
     objecttolerance="10"
     gridtolerance="10"
     guidetolerance="10"
     inkscape:pageopacity="0"
     inkscape:pageshadow="2"
     inkscape:window-width="1466"
     inkscape:window-height="808"
     id="namedview24439"
     showgrid="true"
     inkscape:zoom="9.9797985"
     inkscape:cx="26.700963"
     inkscape:cy="32.056691"
     inkscape:window-x="1680"
     inkscape:window-y="114"
     inkscape:window-maximized="0"
     inkscape:current-layer="svg4208"><inkscape:grid
       type="xygrid"
       id="grid30745"
       empspacing="8" /></sodipodi:namedview><metadata
     id="metadata4211"><rdf:RDF><cc:Work
         rdf:about=""><dc:format>image/svg+xml</dc:format><dc:type
           rdf:resource="http://purl.org/dc/dcmitype/StillImage" /><dc:title></dc:title></cc:Work></rdf:RDF></metadata><defs
     id="defs4209" /><path
     style="fill:#000000;fill-opacity:1;stroke:none;stroke-opacity:1"
     d="M 49.422,11.108 C 51.692,14.872 53,19.283 53,24 53,37.807 41.807,49 28,49 c -1.747,0 -3.451,-0.182 -5.097,-0.524 1.668,0.747 3.506,1.269 5.503,1.513 8.26,1.01 15.427,-0.323 24.26,-7.99 -6,11.392 -17.6,14.32 -28.628,10.942 C 17.627,50.977 12.126,47.082 9.748,42.075 8.12,40.521 7.696,38.756 6.533,36.813 8.995,48.903 19.685,58 32.5,58 47.135,58 59,46.136 59,31.5 59,23.299 55.273,15.969 49.422,11.108 Z"
     id="path30164"
     inkscape:connector-curvature="0" /><ellipse
     style="color:#000000;clip-rule:nonzero;display:inline;overflow:visible;visibility:visible;opacity:1;isolation:auto;mix-blend-mode:normal;color-interpolation:sRGB;color-interpolation-filters:linearRGB;solid-color:#000000;solid-opacity:1;fill:none;fill-opacity:1;fill-rule:nonzero;stroke:#000000;stroke-width:2.04625249;stroke-linecap:round;stroke-linejoin:round;stroke-miterlimit:4;stroke-dasharray:none;stroke-dashoffset:0;stroke-opacity:1;color-rendering:auto;image-rendering:auto;shape-rendering:auto;text-rendering:auto;enable-background:accumulate"
     id="path30747"
     cx="32.522961"
     cy="31.320152"
     rx="25.499834"
     ry="25.656721" /></svg>