<?xml version="1.0" encoding="UTF-8" standalone="no"?>
<svg
   xmlns:dc="http://purl.org/dc/elements/1.1/"
   xmlns:cc="http://creativecommons.org/ns#"
   xmlns:rdf="http://www.w3.org/1999/02/22-rdf-syntax-ns#"
   xmlns:svg="http://www.w3.org/2000/svg"
   xmlns="http://www.w3.org/2000/svg"
   xmlns:sodipodi="http://sodipodi.sourceforge.net/DTD/sodipodi-0.dtd"
   xmlns:inkscape="http://www.inkscape.org/namespaces/inkscape"
   id="svg4208"
   style="enable-background:new 0 0 64 64"
   xml:space="preserve"
   version="1.1"
   y="0px"
   x="0px"
   viewBox="0 0 64 64"
   inkscape:version="0.91 r13725"
   sodipodi:docname="tool_pick_color.svg"><sodipodi:namedview
     pagecolor="#ffffff"
     bordercolor="#666666"
     borderopacity="1"
     objecttolerance="10"
     gridtolerance="10"
     guidetolerance="10"
     inkscape:pageopacity="0"
     inkscape:pageshadow="2"
     inkscape:window-width="1466"
     inkscape:window-height="808"
     id="namedview24439"
     showgrid="true"
     inkscape:zoom="4.9898993"
     inkscape:cx="26.891938"
     inkscape:cy="23.059001"
     inkscape:window-x="1680"
     inkscape:window-y="115"
     inkscape:window-maximized="0"
     inkscape:current-layer="svg4208"
     inkscape:snap-bbox="true"
     inkscape:object-nodes="true"
     inkscape:snap-bbox-midpoints="false"
     inkscape:snap-center="true"
     showguides="false"><inkscape:grid
       type="xygrid"
       id="grid30745"
       empspacing="8" /></sodipodi:namedview><metadata
     id="metadata4211"><rdf:RDF><cc:Work
         rdf:about=""><dc:format>image/svg+xml</dc:format><dc:type
           rdf:resource="http://purl.org/dc/dcmitype/StillImage" /><dc:title></dc:title></cc:Work></rdf:RDF></metadata><defs
     id="defs4209" /><path
     inkscape:connector-curvature="0"
     id="path36536"
     d="m 16.649,48.633 0,0 c -1.07,-1.069 -1.07,-2.82 0,-3.889 l 2.21,-2.21 2.077,-5.966 28.637,-28.6380002 c 2.139,-2.139 5.639,-2.139 7.778,0 l 0,0 C 59.49,10.069 59.49,13.569 57.351,15.708 l -28.637,28.638 -5.966,2.077 -2.21,2.21 c -1.07,1.069 -2.82,1.069 -3.889,0 z"
     style="fill:none;stroke:#000000;stroke-width:2;stroke-miterlimit:10;stroke-opacity:1" /><line
     id="line36538"
     y2="25.961"
     x2="50.633999"
     y1="14.646999"
     x1="39.32"
     style="fill:none;stroke:#000000;stroke-width:4;stroke-linecap:round;stroke-miterlimit:10;stroke-opacity:1" /><path
     inkscape:connector-curvature="0"
     id="path36540"
     d="m 56.998,7.5759998 c 2.139,2.139 2.139,5.6390002 0,7.7780002 L 50,23 42,16 49.22,7.5759998 c 3.253317,-3.795837 7.778,0 7.778,0 z"
     style="fill:#000000;fill-opacity:1"
     sodipodi:nodetypes="csccsc" /><path
     inkscape:connector-curvature="0"
     id="path36542"
     d="M 23,54.5 C 23,57.538 20.538,60 17.5,60 14.462,60 12,57.538 12,54.5 12,51.462 14.462,47 17.5,47 c 3.038,0 5.5,4.462 5.5,7.5 z"
     style="fill:#000000;fill-opacity:1" /></svg>